<svg width="23" height="25" viewBox="0 0 23 25" fill="none" xmlns="http://www.w3.org/2000/svg">
<path d="M19.2298 13.2111C19.2176 11.1627 20.2319 9.6167 22.2851 8.4781C21.1363 6.97672 19.4009 6.15067 17.1095 5.98881C14.9402 5.83253 12.5693 7.14416 11.7016 7.14416C10.7851 7.14416 8.68305 6.04463 7.03321 6.04463C3.62354 6.09486 0 8.52834 0 13.479C0 14.9413 0.293305 16.452 0.879915 18.0111C1.66206 20.0595 4.48512 25.0827 7.43039 24.999C8.97024 24.9655 10.0579 23.9999 12.0622 23.9999C14.0053 23.9999 15.0135 24.999 16.7306 24.999C19.7003 24.9599 22.2545 20.3943 23 18.3404C19.0159 16.6269 19.2298 13.3172 19.2298 13.2111ZM15.7713 4.04649C17.4394 2.23813 17.2867 0.591625 17.2378 0C15.7651 0.0781392 14.0603 0.915345 13.0887 1.9479C12.0194 3.05301 11.39 4.42045 11.5244 5.96091C13.1193 6.07253 14.5736 5.32463 15.7713 4.04649Z" fill="black"/>
</svg>
