<svg width="30" height="29" viewBox="0 0 30 29" fill="none" xmlns="http://www.w3.org/2000/svg">
<path d="M13.6083 4.06808C15.4134 4.06648 17.1785 4.58246 18.6801 5.55074C20.1818 6.51901 21.3527 7.89608 22.0446 9.50774C22.7366 11.1194 22.9185 12.8932 22.5673 14.6048C22.2162 16.3164 21.3477 17.8889 20.0719 19.1233C18.7961 20.3577 17.1702 21.1987 15.3999 21.5397C13.6296 21.8807 11.7944 21.7065 10.1266 21.0391C8.45871 20.3717 7.03309 19.2411 6.03005 17.7903C5.02702 16.3396 4.49164 14.6338 4.49163 12.8889C4.50258 10.5541 5.46633 8.31787 7.17343 6.66617C8.88054 5.01446 11.193 4.08079 13.6083 4.06808ZM13.6083 2.41669C11.4657 2.41669 9.37116 3.03087 7.58962 4.18157C5.80809 5.33228 4.41956 6.96781 3.59961 8.88136C2.77966 10.7949 2.56512 12.9005 2.98313 14.9319C3.40113 16.9634 4.43291 18.8293 5.94798 20.2939C7.46305 21.7585 9.39336 22.7558 11.4948 23.1599C13.5963 23.564 15.7745 23.3566 17.754 22.564C19.7336 21.7714 21.4255 20.4291 22.6159 18.707C23.8063 16.9848 24.4416 14.9601 24.4416 12.8889C24.4416 10.1115 23.3003 7.44785 21.2686 5.48393C19.237 3.52001 16.4815 2.41669 13.6083 2.41669Z" fill="#4D724D"/>
<path d="M29.1667 26.8169L23.025 20.8397L21.8417 21.9756L27.9833 27.9528C28.0605 28.0279 28.1522 28.0876 28.2532 28.1284C28.3542 28.1693 28.4626 28.1905 28.5721 28.1909C28.6816 28.1912 28.7901 28.1708 28.8914 28.1306C28.9927 28.0904 29.0848 28.0314 29.1625 27.9568C29.2402 27.8822 29.302 27.7936 29.3442 27.6959C29.3865 27.5983 29.4084 27.4936 29.4088 27.3877C29.4092 27.2819 29.388 27.177 29.3465 27.079C29.3049 26.9811 29.2438 26.8921 29.1667 26.8169Z" fill="#4D724D"/>
</svg>
