<svg width="34" height="20" viewBox="0 0 34 20" fill="none" xmlns="http://www.w3.org/2000/svg">
<path d="M22.6667 0H11.3333C5.07409 0 0 4.47714 0 10C0 15.5229 5.07409 20 11.3333 20H22.6667C28.9259 20 34 15.5229 34 10C34 4.47714 28.9259 0 22.6667 0ZM3.77778 10C3.77778 6.31557 7.15706 3.33333 11.3333 3.33333C15.509 3.33333 18.8889 6.31505 18.8889 10C18.8889 13.6844 15.5096 16.6667 11.3333 16.6667C7.15765 16.6667 3.77778 13.6849 3.77778 10ZM22.6667 16.6667H19.7799C23.6295 12.872 23.6306 7.12917 19.7799 3.33333H22.6667C26.8424 3.33333 30.2222 6.31505 30.2222 10C30.2222 13.6844 26.8429 16.6667 22.6667 16.6667Z" fill="black"/>
</svg>
